<?xml version="1.0" encoding="utf-8"?>
<!-- Generator: Adobe Illustrator 23.0.3, SVG Export Plug-In . SVG Version: 6.00 Build 0)  -->
<svg version="1.1" id="Layer_1" xmlns="http://www.w3.org/2000/svg" xmlns:xlink="http://www.w3.org/1999/xlink" x="0px" y="0px"
	 viewBox="0 0 888 323" style="enable-background:new 0 0 888 323;" xml:space="preserve">
<style type="text/css">
	.st0{fill-rule:evenodd;clip-rule:evenodd;fill:url(#SVGID_1_);}
	.st1{fill-rule:evenodd;clip-rule:evenodd;fill:url(#SVGID_2_);}
	.st2{fill-rule:evenodd;clip-rule:evenodd;fill:url(#SVGID_3_);}
	.st3{fill-rule:evenodd;clip-rule:evenodd;fill:url(#SVGID_4_);}
	.st4{fill-rule:evenodd;clip-rule:evenodd;fill:url(#SVGID_5_);}
	.st5{fill-rule:evenodd;clip-rule:evenodd;fill:url(#SVGID_6_);}
	.st6{fill-rule:evenodd;clip-rule:evenodd;fill:url(#SVGID_7_);}
	.st7{fill-rule:evenodd;clip-rule:evenodd;fill:url(#SVGID_8_);}
	.st8{fill-rule:evenodd;clip-rule:evenodd;fill:url(#SVGID_9_);}
	.st9{fill-rule:evenodd;clip-rule:evenodd;fill:url(#SVGID_10_);}
	.st10{fill-rule:evenodd;clip-rule:evenodd;fill:url(#SVGID_11_);}
	.st11{fill-rule:evenodd;clip-rule:evenodd;fill:url(#SVGID_12_);}
	.st12{fill-rule:evenodd;clip-rule:evenodd;fill:url(#SVGID_13_);}
	.st13{fill-rule:evenodd;clip-rule:evenodd;fill:url(#SVGID_14_);}
	.st14{fill-rule:evenodd;clip-rule:evenodd;fill:url(#SVGID_15_);}
	.st15{fill-rule:evenodd;clip-rule:evenodd;fill:url(#SVGID_16_);}
	.st16{fill-rule:evenodd;clip-rule:evenodd;fill:url(#SVGID_17_);}
	.st17{fill-rule:evenodd;clip-rule:evenodd;fill:url(#SVGID_18_);}
	.st18{fill-rule:evenodd;clip-rule:evenodd;fill:url(#SVGID_19_);}
	.st19{fill-rule:evenodd;clip-rule:evenodd;fill:url(#SVGID_20_);}
	.st20{fill-rule:evenodd;clip-rule:evenodd;fill:url(#SVGID_21_);}
	.st21{fill-rule:evenodd;clip-rule:evenodd;fill:url(#SVGID_22_);}
	.st22{fill-rule:evenodd;clip-rule:evenodd;fill:url(#SVGID_23_);}
	.st23{fill-rule:evenodd;clip-rule:evenodd;fill:url(#SVGID_24_);}
	.st24{fill-rule:evenodd;clip-rule:evenodd;fill:url(#SVGID_25_);}
	.st25{fill-rule:evenodd;clip-rule:evenodd;fill:url(#SVGID_26_);}
	.st26{fill-rule:evenodd;clip-rule:evenodd;fill:url(#SVGID_27_);}
	.st27{fill-rule:evenodd;clip-rule:evenodd;fill:url(#SVGID_28_);}
	.st28{fill-rule:evenodd;clip-rule:evenodd;fill:url(#SVGID_29_);}
</style>
<g id="Layer_4">
	<g>
		<g>
			
				<linearGradient id="SVGID_1_" gradientUnits="userSpaceOnUse" x1="848.01" y1="-481.8" x2="876.1126" y2="-481.8" gradientTransform="matrix(1 0 0 -1 0 -194)">
				<stop  offset="0" style="stop-color:#F7B38A"/>
				<stop  offset="1" style="stop-color:#F2F2F2;stop-opacity:0.8"/>
			</linearGradient>
			<path class="st0" d="M875.8,304.9c-0.8,2.8-2.9,5.3-6.4,7.3c-1.7,1-3.5,1.5-5.5,1.5c-4.7,0-9.4-2.7-14.1-8.2
				c-0.6-0.7-1-1.6-1.2-2.6c-0.1-0.5-0.1-0.9-0.1-1.3c0-0.5,0.1-1,0.3-1.4c0.3-0.7,0.9-1,1.6-1c0.5,0,1.2,0.2,1.9,0.5
				c2.7,1.3,5.3,2.7,7.9,4.2c1.8,1.1,3.3,1.6,4.5,1.6c1,0,1.9-0.4,2.5-1.2c1.2-1.4,1.8-4.1,1.8-7.9c0-4-0.7-9.3-1.9-15.9
				c-0.6,0.8-1.5,2.1-2.6,3.8c-1.5,2.4-2.8,4-3.7,5c-1.6,1.6-3.5,2.6-5.5,2.9c-0.5,0.1-0.9,0.1-1.3,0.1c-1.6,0-2.9-0.6-3.9-1.7
				c-1.3-1.5-2-4.2-2-7.9c0-1.9,0.2-4,0.5-6.5c0.2-1.5,0.8-3.7,1.8-6.5c1.5-4.3,3-6.4,4.7-6.4c1,0,1.9,0.8,2.7,2.4v0.2
				c0,1.9-0.5,4.7-1.4,8.4c-0.9,3.6-1.3,6.4-1.3,8.5c0,0.3,0,0.5,0,0.7c1.6-0.6,3.1-2.1,4.7-4.6c0.9-1.5,2.2-4,3.7-7.5
				c1.5-3.3,2.6-5.5,3.3-6.6c1.2-1.9,2.5-2.9,3.7-2.9c0.2,0,0.5,0,0.7,0.1h0.1c0.4,0,0.8,0.2,1.2,0.6c1.7,1.7,2.5,8.6,2.5,20.6v3.7
				c0,2.2,0,3.7,0.1,4.4c0.1,1.1,0.3,2.8,0.5,4.8c0.3,2.2,0.4,4,0.4,5.5C876.1,303.1,876,304.1,875.8,304.9z"/>
		</g>
	</g>
	<g>
		<g>
			
				<linearGradient id="SVGID_2_" gradientUnits="userSpaceOnUse" x1="814.9899" y1="-461.3" x2="849.6898" y2="-461.3" gradientTransform="matrix(1 0 0 -1 0 -194)">
				<stop  offset="0" style="stop-color:#F7B38A"/>
				<stop  offset="1" style="stop-color:#F2F2F2;stop-opacity:0.8"/>
			</linearGradient>
			<path class="st1" d="M843.8,271.1c-1.9,0.3-4.7,0.6-8.5,0.9l-1.1,0.1c0,0.1,0,0.5-0.1,1.1c-0.1,1.5-0.2,2.7-0.2,3.6
				c0,0.4,0,0.7,0,0.9c0.2,2,0.3,4.5,0.4,7.5v1.2c0,4.2-0.4,6.4-1.1,6.6c0,0.1-0.5,0.2-1.4,0.2c-2.2,0-3.4-0.1-3.6-0.3
				c-1.5-1.5-2.3-4.8-2.3-9.9c0-1.5,0.1-3.3,0.2-5.1c0-0.4,0-0.7,0-1c0-1.6-0.3-2.7-0.9-3.4c-0.5-0.6-1.7-0.9-3.5-0.9h-0.5
				c-0.3,0-0.6,0-0.8,0c-1.2,0-2.2-0.1-2.8-0.3c-1.3-0.4-2.2-1.4-2.7-2.8v-0.2c0-0.7,0.2-1.2,0.7-1.7c1-1.1,2.9-1.6,5.7-1.6
				c0.6,0,1.2,0,1.6,0.1c0.3,0,0.7,0,1,0c0.7,0,1.4-0.1,2-0.4c-0.2-2.4-0.3-4.8-0.3-7.1c0-1.8,0.1-3.6,0.2-5.3
				c0.4-5.3,1.4-8.9,3-10.6c0.8-0.9,1.7-1.3,2.8-1.3h0.3c0.4,0,0.8,0.2,1.2,0.5c0.7,0.8,1.1,2.9,1.1,6.3c0,2-0.1,4.5-0.4,7.4
				c-0.2,1.9-0.3,3.1-0.3,3.7c0,0.7,0,1.5,0,2.6v3.3c0,0.3,0.6,0.4,1.7,0.4c0.2,0,0.5,0,0.8,0c1.7-0.1,3.8-0.4,6.3-0.9
				c0.1,0,0.4-0.1,0.8-0.2c1.5-0.4,2.7-0.6,3.6-0.6c1.3,0,2.2,0.4,2.6,1.2c0.3,0.6,0.5,1.1,0.5,1.7c0,0.4-0.1,0.8-0.3,1.2
				C848.7,269.5,846.8,270.5,843.8,271.1z"/>
		</g>
	</g>
	<g>
		<g>
			
				<linearGradient id="SVGID_3_" gradientUnits="userSpaceOnUse" x1="804.9899" y1="-448.6" x2="813.89" y2="-448.6" gradientTransform="matrix(1 0 0 -1 0 -194)">
				<stop  offset="0" style="stop-color:#F7B38A"/>
				<stop  offset="1" style="stop-color:#F2F2F2;stop-opacity:0.8"/>
			</linearGradient>
			<path class="st2" d="M809.3,257.8c-0.2,0-0.5,0-0.8,0c-1.2-0.1-2.1-0.4-2.8-1c-0.5-0.5-0.8-1-0.8-1.7V255c0-1,0.5-1.9,1.5-2.6
				c0.9-0.7,1.9-1,3-1c0.2,0,0.4,0,0.7,0c1.2,0,2.1,0.3,2.8,0.8c0.6,0.5,1,1.1,1,1.9c0,0.9-0.4,1.8-1.3,2.6
				C811.7,257.4,810.6,257.8,809.3,257.8z"/>
		</g>
	</g>
	<g>
		<g>
			
				<linearGradient id="SVGID_4_" gradientUnits="userSpaceOnUse" x1="678.0101" y1="-461.4" x2="770.1204" y2="-461.4" gradientTransform="matrix(1 0 0 -1 0 -194)">
				<stop  offset="0" style="stop-color:#F7B38A"/>
				<stop  offset="1" style="stop-color:#F2F2F2;stop-opacity:0.8"/>
			</linearGradient>
			<path class="st3" d="M768.7,264.4c-1.1-0.8-2.1-1.2-3.1-1.2l0,0c-2.9,0-5.9,1.7-9,5.1c-2.7,3-4.4,5.9-5.2,8.6
				c-0.3-4.5-1.4-7.4-3.5-8.7c-0.4-0.3-0.8-0.4-1.3-0.4c-0.4,0-0.8,0.1-1.1,0.4c-0.8,0.5-1.3,1.6-1.7,3c0,1.3,0.1,2.7,0.2,4
				c-0.2-0.1-0.3-0.2-0.6-0.2c-0.7,0-1.7,0.5-3,1.5c-0.8,0.6-2.5,2.5-5.4,5.9c-2.1,2.5-4.3,4-6.4,4.5c-0.5,0.1-1,0.2-1.5,0.2
				c-1.7,0-3.1-0.7-4.4-2.1c-0.6-0.7-0.9-1.2-1-1.6l0,0c0-0.3,0.2-0.6,0.6-0.8c0.2-0.1,0.7-0.3,1.5-0.5c0.7-0.3,1.3-0.5,1.8-0.8
				c2.7-1.8,4-4.1,4-6.9c0-1-0.2-2-0.5-3.1c-1.2-2.5-2.6-4.3-4.3-5.6c-1.5-1.1-3.1-1.6-4.8-1.6c-0.6,0-1.3,0.1-1.9,0.2
				c-2.5,0.5-4.3,1.4-5.6,2.5c0-0.5-0.2-1-0.5-1.6c-0.4-0.8-1.3-1.2-2.6-1.2c-0.8,0-2,0.2-3.6,0.6c-0.4,0.1-0.7,0.2-0.8,0.2
				c-2.5,0.5-4.6,0.8-6.3,0.9c-0.3,0-0.6,0-0.8,0c-1.1,0-1.7-0.1-1.7-0.4V262c0-1.1,0-1.9,0-2.6c0-0.6,0.1-1.8,0.3-3.7
				c0.3-2.9,0.4-5.4,0.4-7.4c0-3.4-0.4-5.5-1.1-6.3c-0.3-0.4-0.7-0.5-1.2-0.5h-0.3c-1.1,0-2,0.4-2.8,1.3c-1.6,1.8-2.6,5.3-3,10.6
				c-0.1,1.8-0.2,3.5-0.2,5.3c0,2.3,0.1,4.7,0.3,7.1c-0.6,0.3-1.3,0.4-2,0.4c-0.3,0-0.6,0-1,0s-1-0.1-1.6-0.1
				c-2.8,0-4.7,0.5-5.7,1.6c-0.5,0.5-0.7,1-0.7,1.7v0.2c0.5,1.4,1.5,2.3,2.7,2.8c0.6,0.2,1.6,0.3,2.8,0.3c0.3,0,0.5,0,0.8,0h0.5
				c1.8,0,3,0.3,3.5,0.9c0.6,0.7,0.9,1.8,0.9,3.4c0,0.3,0,0.7,0,1c-0.2,1.9-0.2,3.6-0.2,5.1c0,5.1,0.8,8.4,2.3,9.9
				c0.2,0.2,1.4,0.3,3.6,0.3c0.9,0,1.4,0,1.4-0.2c0.7-0.2,1.1-2.4,1.1-6.6v-1.2c0-3-0.2-5.5-0.4-7.5c0-0.2,0-0.5,0-0.9
				c0-0.9,0.1-2,0.2-3.6c0-0.6,0.1-1,0.1-1.1l1.1-0.1c3.8-0.3,6.7-0.6,8.5-0.9c1.7-0.3,3-0.8,3.9-1.4c-0.1,0.3-0.2,0.6-0.2,0.9
				c-0.3,1.8-0.4,3.5-0.4,5c0,3.6,0.8,6.4,2.3,8.5c4.5,6.1,9.4,9.1,14.8,9.1c1.1,0,2.2-0.1,3.3-0.4c3-1.1,6-3.2,9-6.5
				c2.7-3.1,4.3-6,5-8.8c0.2,1.6,0.5,3.2,0.8,4.9c1,4.8,2.5,8,4.3,9.7c0.8,0.7,1.4,1,2,1c1.4,0,2.5-1.8,3.3-5.3
				c1.1-4.9,3-9.1,5.8-12.7c2.5-3.3,5.7-5.9,9.4-7.9c0.1-0.2,0.1-0.4,0.1-0.6C770.1,265.8,769.7,265.1,768.7,264.4z M718.8,278.8
				c-1.2-0.9-1.9-2.6-1.9-5c0-1.1,0.2-2,0.6-2.6c0.4-0.6,1-0.9,1.7-0.9c0.1,0,0.3,0,0.4,0c1.1,0.1,2,0.7,2.6,1.6
				c0.4,0.7,0.7,1.5,0.7,2.3c0,0.2,0,0.4,0,0.5c-0.1,1.1-0.5,2-1.2,2.8C720.9,278.4,719.9,278.8,718.8,278.8z"/>
		</g>
	</g>
	<g>
		<g>
			
				<linearGradient id="SVGID_5_" gradientUnits="userSpaceOnUse" x1="463.84" y1="-471.5" x2="491.21" y2="-471.5" gradientTransform="matrix(1 0 0 -1 0 -194)">
				<stop  offset="0" style="stop-color:#F7B38A"/>
				<stop  offset="1" style="stop-color:#F2F2F2;stop-opacity:0.8"/>
			</linearGradient>
			<path class="st4" d="M474.6,277.4c1,2.8,1.7,4.5,2.1,5.4c1-1.1,2.2-4.2,3.7-9.1c1.2-4,2.2-6.7,3-8.2c1.3-2.5,2.8-3.8,4.4-3.8
				c0.4,0,0.7,0,1,0.1c0.9,0.1,1.5,0.5,2,1.2c0.3,0.4,0.4,1,0.4,1.8c0,2.7-1.6,7.3-4.9,14c-0.8,1.6-1.2,2.5-1.3,2.9l-0.2,0.6
				c-1,3.1-2,5.4-2.9,7c-1.6,2.7-3.4,4-5.5,4c-0.2,0-0.3,0-0.4,0c-1.6-0.1-3-1.3-4.4-3.4c-0.8-1.2-1.7-3.1-2.7-5.8
				c-0.3-0.8-0.5-1.4-0.7-1.7c-0.2-0.4-0.5-1.1-0.9-1.9c-1.5-3.2-2.4-5.6-2.9-7.1c-0.4-1.4-0.7-2.6-0.7-3.7c0-0.9,0.2-1.6,0.5-2.2
				c0.6-0.9,1.6-1.4,3.1-1.4c0.4,0,0.9,0,1.4,0.1C470.2,266.9,472.1,270.6,474.6,277.4z"/>
		</g>
	</g>
	<g>
		<g>
			
				<linearGradient id="SVGID_6_" gradientUnits="userSpaceOnUse" x1="450.06" y1="-448.6" x2="458.96" y2="-448.6" gradientTransform="matrix(1 0 0 -1 0 -194)">
				<stop  offset="0" style="stop-color:#F7B38A"/>
				<stop  offset="1" style="stop-color:#F2F2F2;stop-opacity:0.8"/>
			</linearGradient>
			<path class="st5" d="M454.4,257.8c-0.2,0-0.5,0-0.8,0c-1.2-0.1-2.1-0.4-2.8-1c-0.5-0.5-0.8-1-0.8-1.7V255c0-1,0.5-1.9,1.5-2.6
				c0.9-0.7,1.9-1,3-1c0.2,0,0.4,0,0.7,0c1.2,0,2.1,0.3,2.8,0.8c0.6,0.5,1,1.1,1,1.9c0,0.9-0.4,1.8-1.3,2.6
				C456.8,257.4,455.6,257.8,454.4,257.8z"/>
		</g>
	</g>
	<g>
		<g>
			
				<linearGradient id="SVGID_7_" gradientUnits="userSpaceOnUse" x1="357.52" y1="-459.45" x2="417.7601" y2="-459.45" gradientTransform="matrix(1 0 0 -1 0 -194)">
				<stop  offset="0" style="stop-color:#F7B38A"/>
				<stop  offset="1" style="stop-color:#F2F2F2;stop-opacity:0.8"/>
			</linearGradient>
			<path class="st6" d="M416.8,265.9c-1.5-3-5.3-6.1-11.1-9.2l-2.3-1.2c-7-3.7-12.4-6.2-16.2-7.5c-2.4-0.8-4.2-1.6-5.6-2.5
				c-0.5-0.4-0.8-0.6-0.9-0.7c0,0,0-0.2,0.1-0.4c0.1-0.5,0.2-1,0.2-1.4v-0.3c0-1.6-0.5-2.9-1.3-3.9c-0.7-0.7-1.6-1.1-2.6-1.1h-0.2
				c-1.5,0-2.7,0.6-3.8,1.7c-1,1.1-1.5,2.4-1.6,3.9c-0.4-0.1-1.3-0.3-2.5-0.6c-2.9-0.8-4.9-1.1-6.3-1.1c-3.1,0-4.8,1.4-5,4.3v0.3
				c0,1.8,1.1,3.2,3.3,4.2c1.4,0.6,3.7,1.1,6.9,1.6c2.1,0.3,3.5,0.6,4,0.9c0.7,0.3,1,2.9,1,7.7c0,1.5,0,2.5,0.1,2.9
				c0.8,5.6,1.6,12.1,2.5,19.6c0,0-0.1,0-0.3,0c-0.1,0-0.2,0-0.3,0c-1.4-0.2-2.4-0.3-3.2-0.3c-2.9,0-4.5,0.9-5.1,2.7
				c-0.2,0.6-0.3,1.1-0.3,1.6c0,0.8,0.2,1.6,0.7,2.2c1.1,1.5,3.9,2.3,8.5,2.4c0.8,0,1.3,0.1,1.5,0.1c0.7,0.1,1.7,0.3,2.9,0.7
				c1.3,0.4,2.3,0.7,3,0.7c1.1,0,2.3-0.4,3.5-1.2c0.4-0.3,0.5-0.7,0.5-1.3c0-0.2,0-0.4,0-0.7l0,0c0,0,0,0,0-0.1l1.1-0.3
				c1.7-0.4,2.9-0.7,3.6-0.9c7.9-2,14.1-4.5,18.5-7.5c2.9-2,5.1-4.2,6.4-6.8c0.9-1.7,1.3-3.3,1.3-4.8
				C417.8,268.5,417.4,267.1,416.8,265.9z M408,271.1c-0.1,2-2.6,4-7.4,6.1l-0.8,0.3c-4,1.8-9.4,3.3-16.4,4.6
				c-0.9-0.9-1.5-3.7-1.8-8.5c0-0.9-0.1-1.5-0.1-1.8c-0.1-0.9-0.3-2.3-0.5-4.3c-0.7-5.5-1-9.7-1-12.4c0.4-0.1,0.8-0.1,1.2-0.1
				c2.8,0,7.2,1.5,13.2,4.5l2.1,1c7.7,3.7,11.5,7.1,11.5,10.3L408,271.1L408,271.1z"/>
		</g>
	</g>
	<g>
		<g>
			
				<linearGradient id="SVGID_8_" gradientUnits="userSpaceOnUse" x1="250.36" y1="-472.55" x2="273.7675" y2="-472.55" gradientTransform="matrix(1 0 0 -1 0 -194)">
				<stop  offset="0" style="stop-color:#F7B38A"/>
				<stop  offset="1" style="stop-color:#F2F2F2;stop-opacity:0.8"/>
			</linearGradient>
			<path class="st7" d="M271.2,267.3c-1.7-2.2-4-3.3-7-3.3h-0.5c-3.7,0-6.8,1.2-9.2,3.6c-2.4,2.4-3.8,5.6-4.1,9.5
				c-0.1,0.8-0.1,1.5-0.1,2.2c0,2.9,0.5,5.5,1.4,7.7c1.4,3.3,3.6,5.2,6.7,5.8c0.8,0.2,1.6,0.3,2.4,0.3c3.9,0,7.1-1.9,9.6-5.6
				c2.2-3.3,3.3-7.2,3.3-11.5C273.8,272.5,272.9,269.5,271.2,267.3z M266.7,277.9c-0.1,2.2-0.8,4-2,5.3c-1.1,1.4-2.2,2-3.2,2
				c-0.9,0-1.7-0.5-2.3-1.6c-0.7-1.1-1.1-2.5-1.1-4.2V279c0-1.5,0.3-2.8,0.9-3.9c0.1-0.9,0.6-1.7,1.6-2.6s2-1.4,2.9-1.4
				c0.8,0,1.5,0.4,1.9,1.1c0.8,1.3,1.3,2.9,1.3,4.7C266.7,277.3,266.7,277.6,266.7,277.9z"/>
		</g>
	</g>
	<g>
		<g>
			
				<linearGradient id="SVGID_9_" gradientUnits="userSpaceOnUse" x1="216.8" y1="-481.8" x2="244.9" y2="-481.8" gradientTransform="matrix(1 0 0 -1 0 -194)">
				<stop  offset="0" style="stop-color:#F7B38A"/>
				<stop  offset="1" style="stop-color:#F2F2F2;stop-opacity:0.8"/>
			</linearGradient>
			<path class="st8" d="M238.2,312.2c-1.7,1-3.5,1.5-5.5,1.5c-4.7,0-9.4-2.7-14.1-8.2c-0.6-0.7-1-1.6-1.2-2.6
				c-0.1-0.5-0.1-0.9-0.1-1.3c0-0.5,0.1-1,0.3-1.4c0.4-0.7,0.9-1,1.6-1c0.5,0,1.1,0.2,1.9,0.5c2.7,1.3,5.3,2.7,7.9,4.2
				c1.8,1.1,3.3,1.6,4.5,1.6c1,0,1.9-0.4,2.6-1.2c1.2-1.4,1.8-4.1,1.8-7.9c0-4-0.6-9.3-1.9-15.9c-0.6,0.8-1.5,2.1-2.6,3.8
				c-1.5,2.4-2.8,4-3.7,5c-1.6,1.6-3.4,2.6-5.5,2.9c-0.5,0.1-0.9,0.1-1.3,0.1c-1.6,0-2.9-0.6-3.9-1.7c-1.4-1.5-2-4.2-2-7.9
				c0-1.9,0.2-4,0.5-6.5c0.2-1.5,0.8-3.7,1.8-6.5c1.5-4.3,3-6.4,4.6-6.4c1,0,1.9,0.8,2.7,2.4l0.1,0.2c0,1.9-0.5,4.7-1.4,8.4
				c-0.9,3.6-1.3,6.4-1.3,8.5c0,0.3,0,0.5,0,0.7c1.6-0.6,3.1-2.1,4.7-4.6c0.9-1.5,2.1-4,3.7-7.5c1.5-3.3,2.6-5.5,3.3-6.6
				c1.2-1.9,2.4-2.9,3.7-2.9c0.2,0,0.5,0,0.7,0.1h0.1c0.4,0,0.8,0.2,1.2,0.6c1.7,1.7,2.6,8.6,2.6,20.6v3.7c0,2.2,0,3.7,0.1,4.4
				c0.1,1.1,0.3,2.8,0.5,4.8c0.3,2.2,0.4,4,0.4,5.5c0,1.3-0.1,2.3-0.3,3.1C243.9,307.7,241.8,310.1,238.2,312.2z"/>
		</g>
	</g>
	<g>
		<g>
			
				<linearGradient id="SVGID_10_" gradientUnits="userSpaceOnUse" x1="140.94" y1="-461" x2="150.92" y2="-461" gradientTransform="matrix(1 0 0 -1 0 -194)">
				<stop  offset="0" style="stop-color:#F7B38A"/>
				<stop  offset="1" style="stop-color:#F2F2F2;stop-opacity:0.8"/>
			</linearGradient>
			<path class="st9" d="M142,242.2l0.2-0.1c1.3-0.8,2.6-1.2,3.9-1.2c0.7,0,1.3,0.3,1.7,0.7c1.1,1.2,1.6,4.2,1.6,9
				c0,2.5-0.1,5.4-0.4,8.9c-0.1,1.1-0.1,1.8-0.2,2c-0.1,1.4-0.1,2.8-0.1,4.2c0,6.3,0.6,12.8,1.9,19.6c0.2,1.1,0.3,2,0.3,2.9
				c0,1.8-0.4,3.1-1.2,4c-0.5,0.6-1.1,0.9-1.9,0.9s-1.6-0.3-2.6-0.9c-2.1-1.3-3.4-6.5-3.8-15.5c-0.1-1.4-0.1-2.4-0.2-2.9
				c-0.3-3-0.4-6.1-0.4-9.2v-1.7c0-7,0.4-13.9,1-20.7H142z"/>
		</g>
	</g>
	<g>
		<g>
			
				<linearGradient id="SVGID_11_" gradientUnits="userSpaceOnUse" x1="20.7" y1="-470.35" x2="47.95" y2="-470.35" gradientTransform="matrix(1 0 0 -1 0 -194)">
				<stop  offset="0" style="stop-color:#F7B38A"/>
				<stop  offset="1" style="stop-color:#F2F2F2;stop-opacity:0.8"/>
			</linearGradient>
			<path class="st10" d="M35.9,260.5c1.3-0.8,2.4-1.1,3.3-1.1c1.2,0,2,0.6,2.5,1.7c1.5,3.5,2.8,8.9,3.9,16.4c0.4,2.6,0.7,4.6,1,6
				c0.1,0.4,0.3,1.2,0.6,2.3c0.5,1.9,0.7,3.4,0.7,4.5c0,0.9-0.2,1.6-0.5,2c-0.5,0.7-1.4,1-2.5,1c-0.5,0-1,0-1.5-0.2
				c-1.5-0.3-2.8-2.1-3.7-5.6c-0.5-2-1.2-5.6-1.8-10.6c-0.5-3.4-0.8-5.6-1.1-6.6c-2.7,2-4.7,4.3-5.8,6.7c-0.9,2-1.4,4.6-1.4,7.6
				c0,1.3-0.5,2.8-1.5,4.5c-1.1,1.9-2.3,2.9-3.6,2.9c-1.1,0-2.1-0.8-3-2.3c-0.5-1-0.8-2.5-0.8-4.7c0-2,0.2-4.5,0.7-7.5
				c0.4-2.6,0.6-4.4,0.6-5.4c0-1.9,0.5-3.3,1.5-4.2c0.7-0.7,1.6-1,2.6-1c0.4,0,0.9,0,1.4,0.2c1.2,0.3,1.8,0.7,1.9,1.2
				c0.6-0.6,1.4-1.7,2.4-3.2c0.9-1.4,1.6-2.4,2.2-3C34.3,261.6,35,261,35.9,260.5z"/>
		</g>
	</g>
	<g>
		<g>
			
				<linearGradient id="SVGID_12_" gradientUnits="userSpaceOnUse" x1="5" y1="-458.55" x2="14.8252" y2="-458.55" gradientTransform="matrix(1 0 0 -1 0 -194)">
				<stop  offset="0" style="stop-color:#F7B38A"/>
				<stop  offset="1" style="stop-color:#F2F2F2;stop-opacity:0.8"/>
			</linearGradient>
			<path class="st11" d="M13.3,292.4c-0.7,0.5-1.4,0.8-2.3,0.8c-0.9,0-1.7-0.3-2.4-0.8s-1.2-1.3-1.5-2.1c-0.5-1.6-0.7-3.8-0.7-6.7
				c0-0.8,0-1.6,0.1-2.5l0.1-1.5c0-0.8,0-1.7,0-2.6c0-4-0.2-9.4-0.6-16.2l-0.1-2.5c0-0.4-0.1-1.3-0.3-2.7C5.2,252,5,248.9,5,246.3
				c0-4.7,0.7-7.7,1.9-9.2c0.8-0.8,1.7-1.2,2.8-1.2h0.2c1.6,0,2.7,0.4,3.4,1.3c0.6,0.7,0.9,1.8,0.9,3.4c0,1-0.1,2.2-0.4,3.6
				c-0.1,0.7-0.2,1.2-0.3,1.4c-0.3,2.2-0.5,5.2-0.5,8.8c0,2.8,0.1,6,0.3,9.7c0.2,3.5,0.3,6,0.3,7.7c0,0.6,0,1.4,0,2.4
				c0,3.5,0.1,6.1,0.4,7.9l0.2,1.3c0.3,2.1,0.5,3.8,0.5,5.1c0,0.6,0,1.1-0.1,1.6C14.6,290.9,14.1,291.8,13.3,292.4z"/>
		</g>
	</g>
	<g>
		<g>
			
				<linearGradient id="SVGID_13_" gradientUnits="userSpaceOnUse" x1="51.69" y1="-472.55" x2="80.38" y2="-472.55" gradientTransform="matrix(1 0 0 -1 0 -194)">
				<stop  offset="0" style="stop-color:#F7B38A"/>
				<stop  offset="1" style="stop-color:#F2F2F2;stop-opacity:0.8"/>
			</linearGradient>
			<path class="st12" d="M65,264h0.5c1,0,2,0.3,2.9,0.8c0.8,0.5,1.4,1.1,1.7,1.8c0.1,0.3,0.2,0.6,0.2,0.9c0,0.4-0.1,0.8-0.4,1.2
				c-0.5,0.7-1.4,1.2-2.7,1.5c-3.2,0.5-4.7,0.8-4.8,0.8c-1.7,0.4-2.6,0.9-2.6,1.5c0,0.3,0.1,0.5,0.2,0.6l0.2,0.2
				c0.9,0.2,5.2,1.8,13,4.6c2.9,1.1,4.8,2.3,5.9,3.6c0.7,0.9,1.1,1.9,1.1,2.9s-0.3,2-0.8,3.1c-0.6,1.2-2.1,2.2-4.5,3.2
				c-2.3,0.9-4.8,1.6-7.8,2c-1.7,0.3-3.3,0.4-4.8,0.4c-1,0-2-0.1-2.9-0.2c-2.4-0.3-3.8-1.1-4.3-2.2s-0.7-2.1-0.7-3
				c0-0.7,0.1-1.3,0.4-1.9c0.4-1,1.1-1.5,2-1.5c0.5,0,1,0.1,1.6,0.4c2.7,1.1,5,1.7,7,1.7c2.1,0,3.8-0.7,5.1-2c-0.3,0-4-1.1-11.1-3.3
				c-5.3-1.6-7.9-3.8-7.9-6.5c0-0.4-0.1-0.8-0.1-1.1c0-2.7,1.5-5,4.7-6.9C59.2,265,62.1,264,65,264z"/>
		</g>
	</g>
	<g>
		<g>
			
				<linearGradient id="SVGID_14_" gradientUnits="userSpaceOnUse" x1="109.68" y1="-448.6" x2="118.58" y2="-448.6" gradientTransform="matrix(1 0 0 -1 0 -194)">
				<stop  offset="0" style="stop-color:#F7B38A"/>
				<stop  offset="1" style="stop-color:#F2F2F2;stop-opacity:0.8"/>
			</linearGradient>
			<path class="st13" d="M114,257.8c-0.2,0-0.5,0-0.8,0c-1.2-0.1-2.1-0.4-2.8-1c-0.5-0.5-0.8-1-0.8-1.7V255c0-1,0.5-1.9,1.5-2.6
				c0.9-0.7,1.9-1,3-1c0.2,0,0.4,0,0.7,0c1.2,0,2.1,0.3,2.8,0.8c0.6,0.5,1,1.1,1,1.9c0,0.9-0.4,1.8-1.3,2.6
				C116.4,257.4,115.3,257.8,114,257.8z"/>
		</g>
	</g>
	<g>
		<g>
			
				<linearGradient id="SVGID_15_" gradientUnits="userSpaceOnUse" x1="76.3" y1="-461.35" x2="118.13" y2="-461.35" gradientTransform="matrix(1 0 0 -1 0 -194)">
				<stop  offset="0" style="stop-color:#F7B38A"/>
				<stop  offset="1" style="stop-color:#F2F2F2;stop-opacity:0.8"/>
			</linearGradient>
			<path class="st14" d="M76.3,269.6v-0.2c0-0.7,0.2-1.2,0.7-1.7c1-1.1,2.9-1.6,5.7-1.6c0.6,0,1.2,0,1.6,0.1c0.3,0,0.7,0,1,0
				c0.7,0,1.4-0.1,2-0.4c-0.2-2.4-0.3-4.8-0.3-7.1c0-1.8,0.1-3.6,0.2-5.3c0.4-5.3,1.4-8.9,3-10.6c0.8-0.9,1.7-1.3,2.8-1.3h0.3
				c0.4,0,0.8,0.2,1.2,0.5c0.7,0.8,1.1,2.9,1.1,6.3c0,2-0.1,4.5-0.4,7.4c-0.2,1.9-0.3,3.1-0.3,3.7c0,0.7,0,1.5,0,2.6v3.3
				c0,0.3,0.6,0.4,1.7,0.4c0.2,0,0.5,0,0.8,0c1.7-0.1,3.8-0.4,6.3-0.9c0.1,0,0.4-0.1,0.8-0.2c1.6-0.4,2.7-0.6,3.6-0.6
				c1.3,0,2.2,0.4,2.6,1.2c0.3,0.5,0.4,0.9,0.4,1.4c0.2-0.4,0.4-0.9,0.7-1.3c0.6-0.9,1.8-1.4,3.4-1.4c1.3,0,1.9,0.5,1.9,1.6
				c0.8,4.6,1.2,9.6,1.2,15.2c0,0.7,0,1.3,0,2l-0.2,8.2c0,0.4-0.6,0.9-1.7,1.5c-1.1,0.5-1.9,0.8-2.6,0.8c-0.3,0-0.6-0.1-0.8-0.3
				c-1.5-1.2-2.3-3.1-2.6-5.8c-0.1-0.5-0.1-1.1-0.1-1.8c0-1.5,0.1-3.5,0.3-5.9c0.1-1,0.2-1.7,0.2-2.2c0.1-1.8,0.2-3.6,0.2-5.6
				c0-0.6,0-1.3,0-1.9c0-0.4-0.1-0.9-0.1-1.4c0-0.1,0-0.2,0-0.3c-0.8,1.5-2.6,2.5-5.6,3c-1.9,0.3-4.7,0.6-8.5,0.9l-1.1,0.1
				c0,0.1-0.1,0.5-0.1,1.1c-0.1,1.5-0.2,2.7-0.2,3.6c0,0.4,0,0.7,0,0.9c0.2,2,0.3,4.5,0.4,7.5v1.2c0,4.2-0.4,6.4-1.1,6.6
				c0,0.1-0.5,0.2-1.4,0.2c-2.2,0-3.4-0.1-3.6-0.3c-1.5-1.5-2.3-4.8-2.3-9.9c0-1.5,0.1-3.3,0.2-5.1c0-0.4,0-0.7,0-1
				c0-1.6-0.3-2.7-0.9-3.4c-0.5-0.6-1.7-0.9-3.5-0.9h-0.5c-0.3,0-0.6,0-0.8,0c-1.2,0-2.2-0.1-2.8-0.3
				C77.8,271.9,76.9,271,76.3,269.6z"/>
		</g>
	</g>
	<g>
		<g>
			
				<linearGradient id="SVGID_16_" gradientUnits="userSpaceOnUse" x1="124.9677" y1="-461" x2="134.9477" y2="-461" gradientTransform="matrix(1 0 0 -1 0 -194)">
				<stop  offset="0" style="stop-color:#F7B38A"/>
				<stop  offset="1" style="stop-color:#F2F2F2;stop-opacity:0.8"/>
			</linearGradient>
			<path class="st15" d="M126,242.2l0.2-0.1c1.3-0.8,2.6-1.2,3.9-1.2c0.7,0,1.3,0.3,1.7,0.7c1.1,1.2,1.6,4.2,1.6,9
				c0,2.5-0.1,5.4-0.4,8.9c-0.1,1.1-0.1,1.8-0.2,2c-0.1,1.4-0.1,2.8-0.1,4.2c0,6.3,0.6,12.8,1.9,19.6c0.2,1.1,0.3,2,0.3,2.9
				c0,1.8-0.4,3.1-1.2,4c-0.5,0.6-1.1,0.9-1.9,0.9s-1.6-0.3-2.6-0.9c-2.1-1.3-3.3-6.5-3.8-15.5c-0.1-1.4-0.1-2.4-0.2-2.9
				c-0.3-3-0.4-6.1-0.4-9.2v-1.7c0-7,0.3-13.9,1-20.7H126z"/>
		</g>
	</g>
	<g>
		<g>
			
				<linearGradient id="SVGID_17_" gradientUnits="userSpaceOnUse" x1="155.26" y1="-472.55" x2="183.95" y2="-472.55" gradientTransform="matrix(1 0 0 -1 0 -194)">
				<stop  offset="0" style="stop-color:#F7B38A"/>
				<stop  offset="1" style="stop-color:#F2F2F2;stop-opacity:0.8"/>
			</linearGradient>
			<path class="st16" d="M168.6,264h0.5c1,0,2,0.3,2.9,0.8c0.8,0.5,1.4,1.1,1.7,1.8c0.1,0.3,0.2,0.6,0.2,0.9c0,0.4-0.1,0.8-0.4,1.2
				c-0.5,0.7-1.4,1.2-2.6,1.5c-3.2,0.5-4.7,0.8-4.8,0.8c-1.7,0.4-2.6,0.9-2.6,1.5c0,0.3,0.1,0.5,0.2,0.6l0.2,0.2
				c0.9,0.2,5.2,1.8,13,4.6c2.9,1.1,4.8,2.3,5.9,3.6c0.7,0.9,1.1,1.9,1.1,2.9s-0.3,2-0.8,3.1c-0.6,1.2-2.1,2.2-4.5,3.2
				c-2.3,0.9-4.9,1.6-7.8,2c-1.7,0.3-3.3,0.4-4.8,0.4c-1,0-2-0.1-2.9-0.2c-2.4-0.3-3.8-1.1-4.3-2.2s-0.7-2.1-0.7-3
				c0-0.7,0.1-1.3,0.4-1.9c0.4-1,1.1-1.5,2-1.5c0.5,0,1,0.1,1.6,0.4c2.7,1.1,5,1.7,7,1.7c2.1,0,3.8-0.7,5.1-2c-0.3,0-4-1.1-11.1-3.3
				c-5.3-1.6-7.9-3.8-7.9-6.5c-0.1-0.4-0.1-0.8-0.1-1.1c0-2.7,1.6-5,4.6-6.9C162.8,265,165.7,264,168.6,264z"/>
		</g>
	</g>
	<g>
		<g>
			
				<linearGradient id="SVGID_18_" gradientUnits="userSpaceOnUse" x1="278.84" y1="-473.9499" x2="305.94" y2="-473.9499" gradientTransform="matrix(1 0 0 -1 0 -194)">
				<stop  offset="0" style="stop-color:#F7B38A"/>
				<stop  offset="1" style="stop-color:#F2F2F2;stop-opacity:0.8"/>
			</linearGradient>
			<path class="st17" d="M286.1,264.8L286.1,264.8c0.8,0,1.5,0.3,1.9,0.8s0.7,1.5,0.7,3c0,2.1-0.5,5.2-1.4,9.3
				c-0.7,3.1-1.1,5.2-1.1,6.2c0,0.4,0,0.6,0.1,0.6s0.2,0,0.4-0.1c2.5-1.5,4.4-3.8,5.6-6.7c0.7-1.7,1.3-4.2,1.8-7.5
				c0.3-2.1,0.6-3.5,0.9-4.2c0.5-1.1,1.2-1.7,2.2-1.7c1.9,0,3.2,1.3,4,3.9c0.5,1.5,0.8,4.1,1,7.6c0.1,1.9,0.2,3.1,0.3,3.8
				c0.2,1.1,0.7,2.9,1.6,5.3c1.2,3.4,1.8,5.8,1.8,7.4c0,1.9-0.8,2.9-2.4,2.9c-1.1,0-2.2-0.4-3.2-1.3c-1.4-1.2-2.5-3.8-3.3-7.9
				c-0.2-1.2-0.4-2.1-0.5-2.6c-1.3,2.4-3.2,4.5-5.5,6.4c-2.5,2-4.8,3-6.8,3c-1.6,0-2.9-0.7-3.8-2.1c-1-1.5-1.5-3.8-1.5-6.8
				c0-3.1,0.6-6.8,1.8-11.1C282.1,267.7,284,264.9,286.1,264.8z"/>
		</g>
	</g>
	<g>
		<g>
			
				<linearGradient id="SVGID_19_" gradientUnits="userSpaceOnUse" x1="310.1301" y1="-472.3" x2="336.33" y2="-472.3" gradientTransform="matrix(1 0 0 -1 0 -194)">
				<stop  offset="0" style="stop-color:#F7B38A"/>
				<stop  offset="1" style="stop-color:#F2F2F2;stop-opacity:0.8"/>
			</linearGradient>
			<path class="st18" d="M312.9,267.9c0.4,0,0.8,0.1,1.3,0.4c2,1.2,3.2,4.1,3.5,8.7c0.8-2.8,2.5-5.6,5.2-8.6c3.1-3.4,6.1-5.1,9-5.1
				l0,0c1,0,2.1,0.4,3.1,1.2c1,0.7,1.4,1.5,1.4,2.3c0,0.2,0,0.4-0.1,0.6c-3.8,1.9-6.9,4.5-9.4,7.9c-2.8,3.6-4.7,7.9-5.8,12.7
				c-0.8,3.6-1.9,5.3-3.3,5.3c-0.6,0-1.3-0.3-2-1c-1.8-1.7-3.3-4.9-4.3-9.7c-0.8-3.8-1.3-7.6-1.3-11.2c0.4-1.5,0.9-2.5,1.7-3
				C312.2,268,312.5,267.9,312.9,267.9z"/>
		</g>
	</g>
	<g>
		<g>
			
				<linearGradient id="SVGID_20_" gradientUnits="userSpaceOnUse" x1="421.2801" y1="-472.3" x2="447.48" y2="-472.3" gradientTransform="matrix(1 0 0 -1 0 -194)">
				<stop  offset="0" style="stop-color:#F7B38A"/>
				<stop  offset="1" style="stop-color:#F2F2F2;stop-opacity:0.8"/>
			</linearGradient>
			<path class="st19" d="M424.1,267.9c0.4,0,0.8,0.1,1.3,0.4c2,1.2,3.2,4.1,3.5,8.7c0.8-2.8,2.5-5.6,5.2-8.6c3.1-3.4,6.1-5.1,9-5.1
				l0,0c1,0,2.1,0.4,3.1,1.2c1,0.7,1.4,1.5,1.4,2.3c0,0.2,0,0.4-0.1,0.6c-3.8,1.9-6.9,4.5-9.4,7.9c-2.8,3.6-4.7,7.9-5.8,12.7
				c-0.8,3.6-1.9,5.3-3.3,5.3c-0.6,0-1.3-0.3-2-1c-1.8-1.7-3.3-4.9-4.3-9.7c-0.8-3.8-1.3-7.6-1.3-11.2c0.4-1.5,0.9-2.5,1.7-3
				C423.3,268,423.7,267.9,424.1,267.9z"/>
		</g>
	</g>
	<g>
		<g>
			
				<linearGradient id="SVGID_21_" gradientUnits="userSpaceOnUse" x1="450.58" y1="-472.45" x2="458.54" y2="-472.45" gradientTransform="matrix(1 0 0 -1 0 -194)">
				<stop  offset="0" style="stop-color:#F7B38A"/>
				<stop  offset="1" style="stop-color:#F2F2F2;stop-opacity:0.8"/>
			</linearGradient>
			<path class="st20" d="M451.1,277.3c0.1-1.8,0.2-3.6,0.2-5.6c0-0.6,0-1.3,0-1.9c0-0.4-0.1-0.9-0.1-1.4c0-0.2,0-0.3,0-0.5
				c0-0.9,0.3-1.8,1-2.7c0.6-0.9,1.8-1.4,3.4-1.4c1.3,0,1.9,0.5,1.9,1.6c0.8,4.6,1.2,9.6,1.2,15.2c0,0.7,0,1.3,0,2l-0.2,8.2
				c0,0.4-0.6,0.9-1.7,1.5c-1.1,0.5-1.9,0.8-2.6,0.8c-0.4,0-0.6-0.1-0.8-0.3c-1.5-1.2-2.3-3.1-2.6-5.8c0-0.5-0.1-1.1-0.1-1.8
				c0-1.5,0.1-3.5,0.3-5.9C451,278.5,451.1,277.8,451.1,277.3z"/>
		</g>
	</g>
	<g>
		<g>
			
				<linearGradient id="SVGID_22_" gradientUnits="userSpaceOnUse" x1="493.59" y1="-472.8" x2="528.0502" y2="-472.8" gradientTransform="matrix(1 0 0 -1 0 -194)">
				<stop  offset="0" style="stop-color:#F7B38A"/>
				<stop  offset="1" style="stop-color:#F2F2F2;stop-opacity:0.8"/>
			</linearGradient>
			<path class="st21" d="M527,275.1c-0.7,0-1.7,0.5-3,1.5c-0.8,0.6-2.5,2.5-5.4,5.9c-2.1,2.5-4.3,4-6.4,4.5c-0.5,0.1-1,0.2-1.5,0.2
				c-1.7,0-3.1-0.7-4.4-2.1c-0.6-0.7-0.9-1.2-1-1.6l0,0c0-0.3,0.2-0.6,0.6-0.8c0.2-0.1,0.7-0.3,1.5-0.5c0.7-0.3,1.3-0.5,1.8-0.8
				c2.7-1.8,4-4.1,4-6.9c0-1-0.2-2-0.5-3.1c-1.2-2.5-2.6-4.3-4.3-5.6c-1.5-1.1-3.1-1.6-4.8-1.6c-0.6,0-1.3,0.1-1.9,0.2
				c-4.7,1-7.3,3.2-7.8,6.4c-0.3,1.8-0.4,3.5-0.4,5c0,3.6,0.8,6.4,2.3,8.5c4.5,6.1,9.4,9.1,14.8,9.1c1.1,0,2.2-0.1,3.3-0.4
				c3-1.1,6-3.2,9-6.5c3-3.4,4.7-6.6,5.2-9.7C528.1,275.6,527.7,275.1,527,275.1z M502.3,278.8c-1.2-0.9-1.9-2.6-1.9-5
				c0-1.1,0.2-2,0.6-2.6s1-0.9,1.7-0.9c0.1,0,0.3,0,0.4,0c1.1,0.1,2,0.7,2.6,1.6c0.4,0.7,0.7,1.5,0.7,2.3c0,0.2,0,0.4,0,0.5
				c-0.1,1.1-0.5,2-1.2,2.8C504.4,278.4,503.4,278.8,502.3,278.8z"/>
		</g>
	</g>
	<g>
		<g>
			
				<linearGradient id="SVGID_23_" gradientUnits="userSpaceOnUse" x1="551.6198" y1="-461.5" x2="586.2999" y2="-461.5" gradientTransform="matrix(1 0 0 -1 0 -194)">
				<stop  offset="0" style="stop-color:#F7B38A"/>
				<stop  offset="1" style="stop-color:#F2F2F2;stop-opacity:0.8"/>
			</linearGradient>
			<path class="st22" d="M558,266.2c0.6,0,1.2,0,1.6,0.1c0.3,0,0.7,0,1,0c0.7,0,1.4-0.1,2-0.4c-0.2-2.4-0.3-4.8-0.3-7.1
				c0-1.8,0.1-3.6,0.2-5.3c0.4-5.3,1.4-8.9,3-10.6c0.8-0.9,1.7-1.3,2.8-1.3h0.3c0.4,0,0.8,0.2,1.2,0.5c0.7,0.8,1.1,2.9,1.1,6.3
				c0,2-0.1,4.5-0.4,7.4c-0.2,1.9-0.3,3.1-0.3,3.7c0,0.7,0,1.5,0,2.6v3.3c0,0.3,0.6,0.4,1.7,0.4c0.2,0,0.5,0,0.8,0
				c1.7-0.1,3.8-0.4,6.3-0.9c0.1,0,0.4-0.1,0.8-0.2c1.5-0.4,2.7-0.6,3.6-0.6c1.3,0,2.2,0.4,2.6,1.2c0.3,0.6,0.5,1.1,0.5,1.7
				c0,0.4-0.1,0.8-0.3,1.2c-0.7,1.5-2.6,2.5-5.6,3.1c-1.9,0.3-4.7,0.6-8.5,0.9l-1.1,0.1c0,0.1,0,0.5-0.1,1.1
				c-0.1,1.5-0.2,2.7-0.2,3.6c0,0.4,0,0.7,0,0.9c0.2,2,0.3,4.5,0.4,7.5v1.2c0,4.2-0.4,6.4-1.1,6.6c0,0.1-0.5,0.2-1.4,0.2
				c-2.2,0-3.4-0.1-3.6-0.3c-1.5-1.5-2.3-4.8-2.3-9.9c0-1.5,0.1-3.3,0.2-5.1c0-0.4,0-0.7,0-1c0-1.6-0.3-2.7-0.9-3.4
				c-0.5-0.6-1.7-0.9-3.5-0.9H558c-0.3,0-0.6,0-0.8,0c-1.2,0-2.2-0.1-2.8-0.3c-1.3-0.4-2.2-1.4-2.7-2.8v-0.2c0-0.7,0.2-1.2,0.7-1.7
				C553.3,266.7,555.2,266.2,558,266.2z"/>
		</g>
	</g>
	<g>
		<g>
			
				<linearGradient id="SVGID_24_" gradientUnits="userSpaceOnUse" x1="584.4" y1="-472.55" x2="607.83" y2="-472.55" gradientTransform="matrix(1 0 0 -1 0 -194)">
				<stop  offset="0" style="stop-color:#F7B38A"/>
				<stop  offset="1" style="stop-color:#F2F2F2;stop-opacity:0.8"/>
			</linearGradient>
			<path class="st23" d="M605.2,267.3c-1.7-2.2-4-3.3-7-3.3h-0.5c-3.7,0-6.8,1.2-9.2,3.6s-3.8,5.6-4.1,9.5c0,0.8-0.1,1.5-0.1,2.2
				c0,2.9,0.5,5.5,1.4,7.7c1.4,3.3,3.6,5.2,6.7,5.8c0.8,0.2,1.6,0.3,2.3,0.3c3.9,0,7.1-1.9,9.6-5.6c2.2-3.3,3.3-7.2,3.3-11.5
				C607.8,272.5,607,269.5,605.2,267.3z M600.7,277.9c-0.2,2.2-0.8,4-2,5.3c-1.1,1.4-2.2,2-3.2,2c-0.9,0-1.7-0.5-2.3-1.6
				c-0.7-1.1-1.1-2.5-1.1-4.2V279c0-1.5,0.3-2.8,0.9-3.9c0.1-0.9,0.6-1.7,1.6-2.6s2-1.4,2.9-1.4c0.8,0,1.5,0.4,1.9,1.1
				c0.8,1.3,1.3,2.9,1.3,4.7C600.7,277.3,600.7,277.6,600.7,277.9z"/>
		</g>
	</g>
	<g>
		<g>
			
				<linearGradient id="SVGID_25_" gradientUnits="userSpaceOnUse" x1="640.3198" y1="-459.05" x2="686.1199" y2="-459.05" gradientTransform="matrix(1 0 0 -1 0 -194)">
				<stop  offset="0" style="stop-color:#F7B38A"/>
				<stop  offset="1" style="stop-color:#F2F2F2;stop-opacity:0.8"/>
			</linearGradient>
			<path class="st24" d="M641.1,244.1c0.8-1.4,2.7-2.6,5.6-3.4c1.6-0.5,2.8-1,3.4-1.4c1.6-1.1,2.9-1.6,4-1.6c0.1,0,0.2,0,0.3,0
				c1,0.1,2.3,0.8,3.7,2.2c0.4,0.4,1.1,0.6,2,0.7c0.3,0,0.7,0.1,1,0.1c1.5,0,3.5-0.3,6-0.9c2.6-0.6,4.5-0.9,5.7-0.9
				c0.2,0,0.4,0,0.6,0h0.2c1.8,0.2,2.8,0.9,3.2,2.2c0,0.2,0.1,0.4,0.1,0.6c0,0.1,0,0.3,0,0.4c0,0.5-0.2,0.9-0.4,1.4
				c-0.5,0.9-1.1,1.6-2,2.2c-2.1,1.5-5.3,2.2-9.6,2.2c-0.4,0-0.8,0-1.2,0c-0.3,0-1-0.1-1.9-0.2c-1.1-0.1-2.1-0.2-2.9-0.2
				c-2.5,0-4,0.5-4.5,1.4c-0.5,1.1-1,2.8-1.2,5.1c-0.1,0.5-0.1,1.1-0.2,1.7c0,0.3,0,0.5,0,0.8c5.9-0.8,11.3-1.2,16.2-1.2
				c0.1,0,0.4,0,0.9,0s1,0,1.5,0c0.8,0,1.4,0,1.8,0.1c1.5,0.2,2.6,0.6,3.1,1.4c0.3,0.4,0.5,0.9,0.5,1.3v0.2c0,0.2-0.1,0.4-0.2,0.5
				c-0.3,0.9-1.2,1.8-2.5,2.7c-1.1,0.7-2.1,1.2-3,1.4c-2,0.5-5,0.8-9.1,0.8h-0.4h-1.2c-0.3,0-0.8,0-1.4,0c-0.7,0-1.2,0-1.8,0
				c-0.7,0-1.3,0-1.7,0.1c-1.2,0.2-2.1,0.7-2.6,1.5c-0.7,1.3-1.3,3.3-1.6,6.2v0.5c-0.1,1-0.1,2-0.1,2.9c0,2.1,0.3,3.7,0.8,5
				c0.5,1.2,1.2,1.9,2.1,2.1c0.2,0,0.4,0.1,0.6,0.1c0.3,0,0.6,0,0.9,0c2.1,0,5.3-0.8,9.4-2.3c1.2-0.5,2-0.8,2.6-1
				c4.8-1.7,9-2.5,12.4-2.5c0.8,0,1.5,0,2.2,0.1c0.6,0.1,1.2,0.2,1.8,0.3c0.9,0.2,1.5,0.9,2,2.1c0.2,0.4,0.3,0.9,0.3,1.3
				c0,0.1,0,0.2,0,0.3c0,0.4-0.2,0.8-0.5,1.1c-0.7,0.9-3,1.4-7.1,1.7c-1.2,0.1-2,0.2-2.3,0.2c-3.8,0.7-8.2,2.5-13.2,5.2l-0.3,0.2
				c-4.3,2.4-7.8,3.6-10.3,3.6h-0.4H652c-3.9-0.5-6.4-4.2-7.4-11.3c-0.3-1.9-0.4-4-0.4-6.5c0-0.8,0-1.6,0-2.4c0-1.7,0.2-3.5,0.3-5.4
				c-1.5-0.3-2.5-0.8-3.1-1.8c-0.3-0.4-0.4-0.8-0.4-1.3c0-0.1,0-0.3,0-0.4c0-0.4,0.1-0.7,0.3-1.1c0.2-0.6,0.8-1.5,1.6-2.5
				c0.4-0.5,0.7-0.9,0.8-1.1c0.7-1.1,1.2-2.9,1.5-5.6c0.2-1.3,0.3-2.3,0.5-3c-0.3,0-0.7,0-1-0.1c-2-0.2-3.3-0.9-3.8-2
				c-0.2-0.4-0.3-0.7-0.3-1.1c0-0.1,0-0.3,0-0.4C640.4,245.6,640.7,244.9,641.1,244.1z"/>
		</g>
	</g>
	<g>
		<g>
			
				<linearGradient id="SVGID_26_" gradientUnits="userSpaceOnUse" x1="772.5521" y1="-470.35" x2="799.8021" y2="-470.35" gradientTransform="matrix(1 0 0 -1 0 -194)">
				<stop  offset="0" style="stop-color:#F7B38A"/>
				<stop  offset="1" style="stop-color:#F2F2F2;stop-opacity:0.8"/>
			</linearGradient>
			<path class="st25" d="M773.8,272.1c0-1.9,0.5-3.3,1.5-4.2c0.7-0.7,1.6-1,2.6-1c0.4,0,0.9,0,1.4,0.2c1.2,0.3,1.8,0.7,1.9,1.2
				c0.6-0.6,1.4-1.7,2.3-3.2c0.9-1.4,1.6-2.4,2.2-3c0.4-0.5,1.1-1,2-1.6c1.3-0.8,2.4-1.1,3.3-1.1c1.2,0,2,0.6,2.5,1.7
				c1.5,3.5,2.8,8.9,3.9,16.4c0.4,2.6,0.7,4.6,1,6c0.1,0.4,0.3,1.2,0.6,2.3c0.5,1.9,0.7,3.4,0.7,4.5c0,0.9-0.2,1.6-0.5,2
				c-0.5,0.7-1.4,1-2.5,1c-0.5,0-1,0-1.5-0.2c-1.5-0.3-2.8-2.1-3.7-5.6c-0.5-2-1.2-5.6-1.8-10.6c-0.5-3.4-0.8-5.6-1.1-6.6
				c-2.7,2-4.7,4.3-5.8,6.7c-0.9,2-1.4,4.6-1.4,7.6c0,1.3-0.5,2.8-1.5,4.5c-1.1,1.9-2.3,2.9-3.6,2.9c-1.1,0-2.1-0.8-3-2.3
				c-0.5-1-0.8-2.5-0.8-4.7c0-2,0.2-4.5,0.7-7.5C773.6,274.9,773.8,273.1,773.8,272.1z"/>
		</g>
	</g>
	<g>
		<g>
			
				<linearGradient id="SVGID_27_" gradientUnits="userSpaceOnUse" x1="805.52" y1="-472.45" x2="813.4799" y2="-472.45" gradientTransform="matrix(1 0 0 -1 0 -194)">
				<stop  offset="0" style="stop-color:#F7B38A"/>
				<stop  offset="1" style="stop-color:#F2F2F2;stop-opacity:0.8"/>
			</linearGradient>
			<path class="st26" d="M806,277.3c0.1-1.8,0.2-3.6,0.2-5.6c0-0.6,0-1.3,0-1.9c0-0.4-0.1-0.9-0.1-1.4c0-0.2,0-0.3,0-0.5
				c0-0.9,0.3-1.8,1-2.7s1.8-1.4,3.4-1.4c1.3,0,1.9,0.5,1.9,1.6c0.8,4.6,1.2,9.6,1.2,15.2c0,0.7,0,1.3,0,2l-0.2,8.2
				c0,0.4-0.6,0.9-1.7,1.5c-1.1,0.5-1.9,0.8-2.6,0.8c-0.3,0-0.6-0.1-0.8-0.3c-1.5-1.2-2.3-3.1-2.6-5.8c0-0.5-0.1-1.1-0.1-1.8
				c0-1.5,0.1-3.5,0.3-5.9C805.9,278.5,806,277.8,806,277.3z"/>
		</g>
	</g>
</g>
<g>
	<g>
		<g>
			
				<linearGradient id="SVGID_28_" gradientUnits="userSpaceOnUse" x1="133.8793" y1="807.1691" x2="790.0378" y2="1012.1536" gradientTransform="matrix(1 0 0 1 0 -756.1102)">
				<stop  offset="0" style="stop-color:#CB866E"/>
				<stop  offset="0.4944" style="stop-color:#E3AD9D"/>
				<stop  offset="1" style="stop-color:#CB866E"/>
			</linearGradient>
			<path class="st27" d="M268.8,66.1c3.2,0,5.8-2.6,5.8-5.8s-2.6-5.8-5.8-5.8c-3.2,0-5.8,2.6-5.8,5.8S265.6,66.1,268.8,66.1z
				 M163.1,138.3c1.8-2.1,3.1-4.5,4.1-7.1s1.4-5.5,1.4-8.6c0-3.7-0.7-7.1-2.1-10.3c-1.4-3.2-3.3-6-5.7-8.4s-5.2-4.3-8.4-5.6
				c-3.2-1.4-6.6-2.1-10.2-2.1h-40.8c-0.9,0-1.5,0.3-2,0.8s-0.7,1.2-0.7,2.1v85.7c0,0.9,0.2,1.6,0.7,2s1.1,0.6,2,0.6h44.4
				c3.6,0,7-0.7,10.3-2.2s6.1-3.5,8.5-6s4.4-5.4,5.8-8.8c1.4-3.3,2.1-6.9,2.1-10.6c0-4.2-0.9-8.1-2.6-11.9
				C168.4,144.2,166,141,163.1,138.3z M122.5,114.3h13.2c1.4,0,2.6,0.2,3.8,0.7c1.1,0.5,2.1,1.1,3,1.9c0.8,0.8,1.5,1.8,1.9,2.8
				c0.4,1.1,0.7,2.2,0.7,3.4c0,1.3-0.2,2.5-0.7,3.6s-1.1,2-1.9,2.8c-0.8,0.8-1.8,1.4-3,1.8c-1.2,0.4-2.5,0.6-3.9,0.6h-13v-17.6
				C122.6,114.3,122.5,114.3,122.5,114.3z M147.6,162.7c-0.5,1.2-1.1,2.3-2,3.3s-1.9,1.7-3,2.3c-1.2,0.6-2.4,0.9-3.8,0.9h-16.3
				v-20.5h16.3c1.4,0,2.6,0.3,3.8,0.9c1.2,0.6,2.2,1.4,3,2.4s1.5,2.1,2,3.3s0.7,2.5,0.7,3.7C148.3,160.2,148,161.4,147.6,162.7z
				 M255,88.3h27.2c1.4,0,2.5-1.1,2.5-2.5s-1.1-2.5-2.5-2.5H255c-1.4,0-2.5,1.1-2.5,2.5C252.5,87.2,253.6,88.3,255,88.3z
				 M261.3,102.8c0,3.6,3,6.6,6.6,6.6s6.6-3,6.6-6.6s-3-6.6-6.6-6.6C264.2,96.2,261.3,99.2,261.3,102.8z M270.8,69.6h-4.3
				c-1.4,0-2.5,1.1-2.5,2.5s1.1,2.5,2.5,2.5h4.3c1.4,0,2.5-1.1,2.5-2.5C273.2,70.7,272.1,69.6,270.8,69.6z M260.7,81.4h15.8
				c1.4,0,2.5-1.1,2.5-2.5s-1.1-2.5-2.5-2.5h-15.8c-1.4,0-2.5,1.1-2.5,2.5S259.3,81.4,260.7,81.4z M281.3,177.1
				c12.7-14.7-0.7-27-3.9-30.4c-2.3-1.9-4.3-3.7-6.1-5.4c-1.1-0.3-2.6-1-4-2.5c-2.3-2.4-2.8-1.1-3.8-1.4c-9,2.1-5.7-0.5-4-3.8
				c2-3.3-0.5-8-0.5-8h0.3c-1.3-3.1-1.7-5.8-2-8.3c-0.7-11.4-2.9-17.7-4.8-21c-0.1-0.2-0.2-0.5-0.3-0.7
				c-13.8-14.9-26.9-8.4-36.3-3.9c-7.7,3.7-12.6,8.1-14,9.6c-0.1,0.1-0.2,0.1-0.4,0.2c-3.5,2-6.6,4.5-9.5,7.3
				c-2.8,2.9-5.3,6.1-7.3,9.6c-2.1,3.5-3.6,7.3-4.7,11.2c-1.1,4-1.7,8.2-1.7,12.5s0.6,8.5,1.7,12.5c1.1,4,2.7,7.7,4.7,11.2
				s4.5,6.6,7.3,9.5c2.8,2.8,6,5.3,9.5,7.3s7.2,3.6,11.2,4.7c4,1.1,8.2,1.7,12.5,1.7c1.3,0,2.6-0.1,3.8-0.2h30.2
				c-9.2,8.8-3.5,22-3.5,22l5.3-2c0,0-0.1,0-0.9-1.8c-2.8-8.7,2.9-15,6.9-18.2h0.2c0.7-0.5,1.4-1.1,2.1-1.7c0.6-0.4,1.1-0.6,1.1-0.6
				h-0.2C273.2,183.8,276.7,180.9,281.3,177.1z M246.6,151.3c-1.1,3-2.8,5.5-4.8,7.7c-2.1,2.2-4.5,3.9-7.4,5.2
				c-2.8,1.3-6,1.9-9.4,1.9s-6.5-0.6-9.3-1.9c-2.8-1.3-5.3-3-7.3-5.2c-2.1-2.2-3.7-4.8-4.8-7.7s-1.7-6.1-1.7-9.5s0.6-6.5,1.7-9.5
				c1.1-3,2.8-5.6,4.8-7.8c2.1-2.2,4.5-4,7.3-5.2c2.8-1.3,5.9-1.9,9.3-1.9c3.4,0,6.5,0.6,9.4,1.9c2.8,1.3,5.3,3,7.4,5.2
				c2.1,2.2,3.7,4.8,4.8,7.8s1.7,6.1,1.7,9.5S247.8,148.4,246.6,151.3z M619.3,166.3h-40.8v-15.6h30.4c0.9,0,1.5-0.3,1.9-0.8
				s0.7-1.1,0.7-1.6v-13.1c0-0.9-0.3-1.5-0.8-1.8c-0.5-0.4-1.1-0.5-1.9-0.5h-30.4v-15.1h39.4c0.9,0,1.6-0.3,2.1-0.9s0.7-1.3,0.7-2
				v-15c0-0.9-0.2-1.6-0.7-2.1s-1.2-0.8-2.1-0.8h-60.3c-0.9,0-1.5,0.3-2,0.8s-0.7,1.2-0.7,2v84.8c0,0.9,0.2,1.5,0.7,2
				c0.5,0.4,1.1,0.6,1.9,0.6h61.4c1.5,0,2.3-0.6,2.5-1.7c0.3-0.3,0.5-0.7,0.5-1.1V169C622.1,167.2,621.2,166.3,619.3,166.3z
				 M786,184.4l-31.9-82.3l-1.5-3.5c-0.2-0.3-0.6-0.7-1.1-1.1s-1.1-0.6-1.8-0.6h-15.6c-0.3,0-0.7,0.1-1,0.2c-0.4,0.1-0.7,0.3-1,0.6
				c-0.3,0.2-0.6,0.5-0.8,0.8s-0.4,0.5-0.4,0.8l-33,85.4c-0.3,0.8-0.2,1.4,0.3,1.8c0.5,0.4,1.1,0.6,1.9,0.6H718
				c1.5,0,2.6-0.7,3.1-2.2c0.8-2.1,1.6-4.1,2.3-6.2c0.8-2,1.6-4.1,2.3-6.2H758c0.8,2.1,1.5,4.1,2.3,6.2c0.8,2,1.6,4.1,2.4,6.2
				c0.3,0.8,0.7,1.4,1.2,1.7s1.2,0.5,2.2,0.5h17.4c1.1,0,1.9-0.2,2.3-0.8C786.3,185.8,786.3,185.2,786,184.4z M732.6,153
				c0.8-2.1,1.6-4.3,2.3-6.7c0.8-2.4,1.6-4.8,2.3-7.2c0.8-2.4,1.6-4.8,2.3-7.2c0.8-2.4,1.6-4.6,2.3-6.7l9.3,27.8L732.6,153
				L732.6,153z M712.3,99.4c0-0.1,0.1-0.3,0.1-0.7c0-0.6-0.2-1-0.6-1.4c-0.4-0.3-1-0.5-2-0.5h-19.1c-1.7,0-2.8,0.8-3.3,2.3
				c-1.7,4.6-3.3,9.2-4.8,13.8c-1.5,4.6-3,9.2-4.5,13.8s-3,9.2-4.5,13.8s-3.1,9.2-4.8,13.8L650.3,99c-0.6-1.5-1.6-2.3-3.2-2.3h-19.6
				c-1.5,0-2.2,0.6-2.2,1.7c0,0.2,0,0.3,0.1,0.5s0.1,0.4,0.1,0.5l31.2,81.6c0.3,0.8,0.7,1.6,1,2.4c0.3,0.8,0.7,1.5,1.2,2.2
				c0.4,0.9,1.2,1.3,2.5,1.3h15c0.6,0,1.2-0.2,1.6-0.6c0.5-0.4,0.9-0.9,1.3-1.5c0.4-0.6,0.7-1.2,1-1.9s0.5-1.3,0.7-1.9L712.3,99.4
				L712.3,99.4L712.3,99.4z M366.3,118.9c-2-3.5-4.4-6.6-7.3-9.4c-2.8-2.8-6-5.3-9.4-7.3s-7.1-3.6-11.1-4.7c-1.6-0.4-3.1-0.8-4.7-1
				c-4.8-1.2-8.3-2.6-10.6-3.9c-4-3.9-4.8-3.2-9.2-5.2c-24.3-5.9-32.8,13.3-32.8,13.3l0,0c-4.4,7.5-4.3,15.2-2.2,22.2
				c0.6,1.5,1.6,3.4,3,4.1c4.9,1.6,7.4,1.7,4.7,4.3c-0.6,1.1-2.1,3.3,0,6.6c0.5,0.8,0.8,1.4,0.8,1.9c1.7,2.5,3.3,4.7,4.5,6.5
				c14.7,19.5,3,30.4-0.3,32.8c-5,2.9-8.8,5.6-11.4,7.9l0,0c0,0-6.2,3.7-7.9,11.8h5.4c0,0,0.9-6.3,8.5-10.1h36.2
				c1.2,0.1,2.4,0.1,3.7,0.1c4.3,0,8.4-0.5,12.3-1.6c4-1.1,7.7-2.6,11.1-4.7c3.4-2,6.6-4.4,9.4-7.3c2.8-2.8,5.3-5.9,7.3-9.4
				c2-3.4,3.6-7.1,4.7-11.1c1.1-3.9,1.7-8.1,1.7-12.4c0-4.3-0.6-8.4-1.7-12.4C369.9,126,368.3,122.3,366.3,118.9z M347.5,151.7
				c-1.1,2.9-2.7,5.5-4.8,7.6c-2,2.2-4.5,3.9-7.3,5.1c-2.8,1.2-5.9,1.9-9.3,1.9s-6.4-0.6-9.2-1.9c-2.8-1.2-5.2-2.9-7.3-5.1
				c-2-2.2-3.6-4.7-4.8-7.6c-1.1-2.9-1.7-6.1-1.7-9.4c0-3.3,0.6-6.4,1.7-9.4c1.1-2.9,2.7-5.5,4.8-7.7c2-2.2,4.5-3.9,7.3-5.2
				c2.8-1.3,5.9-1.9,9.2-1.9c3.4,0,6.4,0.6,9.3,1.9c2.8,1.3,5.2,3,7.3,5.2c2,2.2,3.6,4.8,4.8,7.7c1.1,2.9,1.7,6.1,1.7,9.4
				C349.2,145.6,348.6,148.8,347.5,151.7z M432.9,137.2l28.6-37.7c0.4-0.6,0.7-1.1,0.7-1.5c0-0.6-0.5-0.9-1.5-0.9h-23.1
				c-0.7,0-1.4,0.2-2.1,0.6s-1.3,1-1.7,1.7c-4.4,5.7-8.7,11.3-12.9,16.8c-4.3,5.5-8.6,11.1-13,16.8V99.8c0-0.8-0.3-1.5-1-1.9
				c-0.7-0.5-1.3-0.7-1.9-0.7h-18c-0.9,0-1.5,0.3-2,0.8s-0.7,1.2-0.7,1.9v84.9c0,1.8,0.9,2.7,2.7,2.7h18c1.9,0,2.9-0.9,2.9-2.7V161
				l7.7-8.9c2,3,3.9,5.9,5.6,8.6c1.7,2.7,3.4,5.4,5,8.1c1.7,2.7,3.4,5.3,5.1,8c1.8,2.7,3.7,5.5,5.9,8.4c0.4,0.7,1,1.2,1.7,1.6
				c0.7,0.4,1.3,0.6,2,0.6h23c0.9,0,1.3-0.3,1.3-0.9c0-0.4-0.2-1-0.7-1.6L432.9,137.2z M535.1,140.5c-2.6-2.1-5.8-4-9.4-5.5
				c-3.6-1.6-7.6-3-11.9-4.5c-2.2-0.7-4.2-1.4-5.9-2c-1.7-0.6-3.1-1.3-4.2-2s-2-1.5-2.6-2.3s-0.8-1.8-0.8-2.9s0.3-2.1,0.8-2.9
				s1.2-1.4,2.1-1.9s1.9-0.8,3.1-1.1c1.2-0.2,2.4-0.3,3.8-0.3c1.3,0,2.6,0.2,3.8,0.6c1.3,0.4,2.5,0.9,3.6,1.5s2.2,1.2,3.2,2
				c1,0.7,1.9,1.4,2.7,2.1l0.5,0.5c0.6,0.5,1.1,0.9,1.5,1.2c0.5,0.3,1,0.5,1.5,0.5c0.7,0,1.4-0.3,2.1-1l9.3-9.9
				c0.5-0.6,0.9-1.1,1.2-1.5s0.4-0.9,0.4-1.5c0-0.5-0.3-1.2-0.8-1.9c-0.5-0.7-1.3-1.5-2.2-2.3s-2-1.6-3.3-2.5
				c-1.2-0.9-2.5-1.7-3.9-2.5c-3.3-1.8-6.6-3.2-10-4s-6.9-1.2-10.6-1.2c-4.9,0-9.3,0.6-13.3,1.8c-4,1.2-7.4,2.9-10.2,5.1
				c-2.8,2.2-5,4.8-6.5,7.9s-2.3,6.5-2.3,10.3c0,3.6,0.6,6.8,1.8,9.7c1.2,2.9,3,5.5,5.5,8c2.4,2.4,5.5,4.6,9.1,6.6s7.9,3.8,12.8,5.5
				c1.1,0.4,2.4,0.8,3.9,1.4c1.5,0.5,2.9,1.2,4.3,2s2.5,1.7,3.5,2.6c0.9,1,1.4,2.1,1.4,3.4c0,1.1-0.2,2.2-0.5,3.2s-0.9,1.9-1.7,2.7
				s-1.9,1.4-3.3,1.9c-1.4,0.5-3.1,0.7-5.2,0.7c-2.2,0-4.4-0.4-6.4-1.2s-4.1-1.8-6.1-3.2c-1.4-0.9-2.6-1.9-3.7-2.8
				c-1.1-0.9-2-1.7-2.6-2.3c-0.6-0.5-1.1-0.9-1.5-1.1c-0.4-0.2-0.8-0.4-1.2-0.4c-0.5,0-1.2,0.3-2.1,0.9l-10.5,10
				c-0.9,0.9-1.4,1.6-1.4,2.3c0,0.6,0.5,1.4,1.4,2.4l0.1,0.1c0,0,0.1,0.1,0.1,0.2l0.1,0.1c0,0,0.1,0.1,0.1,0.2l0.2,0.2
				c0.6,0.7,1.5,1.6,2.6,2.7c1.1,1.1,2.5,2.3,4.1,3.5c3.9,2.8,8.1,5,12.6,6.7s9.1,2.5,13.7,2.5c4.9,0,9.6-0.7,13.9-2.1
				c4.3-1.4,8-3.4,11.2-5.9c3.2-2.6,5.7-5.6,7.5-9.3c1.8-3.6,2.7-7.7,2.7-12.1c0-4.2-0.7-7.8-2.2-10.8
				C539.8,145.1,537.8,142.6,535.1,140.5z"/>
		</g>
	</g>
</g>
<linearGradient id="SVGID_29_" gradientUnits="userSpaceOnUse" x1="777.2254" y1="108.5148" x2="804.9" y2="108.5148">
	<stop  offset="0" style="stop-color:#CB866E"/>
	<stop  offset="0.4944" style="stop-color:#E3AD9D"/>
	<stop  offset="1" style="stop-color:#CB866E"/>
</linearGradient>
<path class="st28" d="M803.1,115.4c-1.2,2.2-2.9,3.9-5.1,5.1c-2.2,1.2-4.5,1.8-6.9,1.8c-2.4,0-4.7-0.6-6.9-1.8
	c-2.2-1.2-3.9-2.9-5.1-5.1c-1.2-2.2-1.8-4.5-1.8-6.9c0-2.4,0.6-4.7,1.9-6.9c1.2-2.2,3-3.9,5.2-5.1c2.2-1.2,4.5-1.8,6.8-1.8
	c2.3,0,4.6,0.6,6.8,1.8c2.2,1.2,3.9,2.9,5.2,5.1c1.2,2.2,1.9,4.5,1.9,6.9C804.9,110.9,804.3,113.2,803.1,115.4z M801.1,102.7
	c-1-1.9-2.5-3.3-4.3-4.3c-1.8-1-3.7-1.5-5.7-1.5c-1.9,0-3.8,0.5-5.7,1.5c-1.8,1-3.3,2.4-4.3,4.3c-1,1.9-1.6,3.8-1.6,5.8
	c0,2,0.5,3.9,1.5,5.7c1,1.8,2.4,3.3,4.3,4.3c1.8,1,3.7,1.5,5.7,1.5c2,0,3.9-0.5,5.7-1.5c1.8-1,3.3-2.4,4.3-4.3
	c1-1.8,1.5-3.7,1.5-5.7C802.6,106.5,802.1,104.6,801.1,102.7z M795.6,112.1c0.5,2.2,0.9,3.7,1.2,4.2h-2.1c-0.3-0.4-0.6-1.8-1-3.7
	c-0.5-2.1-1.3-2.9-3.1-3h-1.9v6.7h-2v-15.2c1-0.2,2.5-0.3,3.8-0.3c2.1,0,3.5,0.4,4.5,1.3c0.8,0.7,1.2,1.7,1.2,2.9
	c0,2-1.3,3.4-2.9,3.9v0.1C794.5,109.4,795.2,110.5,795.6,112.1z M794.2,105.2c0-2-1.4-2.9-3.6-2.9c-1,0-1.6,0.1-2,0.2v5.6h2
	C792.8,108.1,794.2,107,794.2,105.2z"/>
</svg>
